<mxfile host="app.diagrams.net" modified="2023-01-01T22:53:43.016Z" agent="5.0 (X11; Linux x86_64) AppleWebKit/537.36 (KHTML, like Gecko) Chrome/107.0.0.0 Safari/537.36" version="20.7.4" etag="vHbV3I3A3d2V-i3GIb-q" type="github">
  <diagram id="9i4h9S_yYZ8K589QrZ-i" name="Page-1">
    <mxGraphModel dx="1238" dy="686" grid="1" gridSize="10" guides="1" tooltips="1" connect="1" arrows="1" fold="1" page="1" pageScale="1" pageWidth="850" pageHeight="1100" math="0" shadow="0">
      <root>
        <mxCell id="0" />
        <mxCell id="1" parent="0" />
        <mxCell id="gamUlA-FX7_hhy0Se47C-3" style="edgeStyle=orthogonalEdgeStyle;rounded=0;orthogonalLoop=1;jettySize=auto;html=1;exitX=1;exitY=0.5;exitDx=0;exitDy=0;entryX=0;entryY=0.5;entryDx=0;entryDy=0;entryPerimeter=0;" edge="1" parent="1" source="gamUlA-FX7_hhy0Se47C-1" target="gamUlA-FX7_hhy0Se47C-2">
          <mxGeometry relative="1" as="geometry" />
        </mxCell>
        <mxCell id="gamUlA-FX7_hhy0Se47C-2" value="&lt;span style=&quot;font-family: Menlo, Monaco, Consolas, &amp;quot;Courier New&amp;quot;, monospace; font-size: 12.6px; background-color: rgb(249, 242, 244);&quot;&gt;find_listint_loop&lt;br&gt;Param:&lt;br&gt;&lt;span style=&quot;white-space: pre;&quot;&gt;	&lt;/span&gt;head node pointer (head).&lt;br&gt;&lt;/span&gt;" style="strokeWidth=2;html=1;shape=mxgraph.flowchart.annotation_1;align=left;pointerEvents=1;" vertex="1" parent="1">
          <mxGeometry x="550" y="50" width="50" height="60" as="geometry" />
        </mxCell>
        <mxCell id="gamUlA-FX7_hhy0Se47C-9" style="edgeStyle=orthogonalEdgeStyle;rounded=0;orthogonalLoop=1;jettySize=auto;html=1;exitX=1;exitY=0.5;exitDx=0;exitDy=0;fontColor=#000000;" edge="1" parent="1" source="gamUlA-FX7_hhy0Se47C-5" target="gamUlA-FX7_hhy0Se47C-8">
          <mxGeometry relative="1" as="geometry" />
        </mxCell>
        <mxCell id="gamUlA-FX7_hhy0Se47C-8" value="Node Pointers declaration&lt;br&gt;next node pointer (n_node)&lt;br&gt;tracking node pointer (t_node)" style="strokeWidth=2;html=1;shape=mxgraph.flowchart.annotation_2;align=left;labelPosition=right;pointerEvents=1;fontColor=#000000;" vertex="1" parent="1">
          <mxGeometry x="500" y="230" width="50" height="60" as="geometry" />
        </mxCell>
        <mxCell id="gamUlA-FX7_hhy0Se47C-19" value="Yes" style="edgeStyle=orthogonalEdgeStyle;rounded=0;orthogonalLoop=1;jettySize=auto;html=1;fontColor=#000000;" edge="1" parent="1" source="gamUlA-FX7_hhy0Se47C-14" target="gamUlA-FX7_hhy0Se47C-18">
          <mxGeometry relative="1" as="geometry" />
        </mxCell>
        <mxCell id="gamUlA-FX7_hhy0Se47C-18" value="Return NULL" style="strokeWidth=2;html=1;shape=mxgraph.flowchart.terminator;whiteSpace=wrap;flipV=1;flipH=1;fillColor=#f8cecc;strokeColor=#b85450;" vertex="1" parent="1">
          <mxGeometry x="520" y="345.2482269503548" width="100" height="60" as="geometry" />
        </mxCell>
        <mxCell id="gamUlA-FX7_hhy0Se47C-27" value="Yes" style="edgeStyle=orthogonalEdgeStyle;rounded=0;orthogonalLoop=1;jettySize=auto;html=1;fontColor=#000000;" edge="1" parent="1" source="gamUlA-FX7_hhy0Se47C-21" target="gamUlA-FX7_hhy0Se47C-26">
          <mxGeometry relative="1" as="geometry" />
        </mxCell>
        <mxCell id="gamUlA-FX7_hhy0Se47C-26" value="Return head" style="strokeWidth=2;html=1;shape=mxgraph.flowchart.terminator;whiteSpace=wrap;flipV=1;flipH=1;fillColor=#f8cecc;strokeColor=#b85450;" vertex="1" parent="1">
          <mxGeometry x="510" y="473.97163120567393" width="100" height="60" as="geometry" />
        </mxCell>
        <mxCell id="gamUlA-FX7_hhy0Se47C-1" value="Start" style="ellipse;whiteSpace=wrap;html=1;fillColor=#d5e8d4;strokeColor=#82b366;" vertex="1" parent="1">
          <mxGeometry x="290" y="110" width="119" height="62.41134751773056" as="geometry" />
        </mxCell>
        <mxCell id="gamUlA-FX7_hhy0Se47C-5" value="Declaration&lt;br&gt;n_node,&lt;br&gt;t_node." style="whiteSpace=wrap;html=1;fillColor=#dae8fc;strokeColor=#6c8ebf;rounded=1;" vertex="1" parent="1">
          <mxGeometry x="290" y="242.62411347517744" width="119" height="46.80851063829788" as="geometry" />
        </mxCell>
        <mxCell id="gamUlA-FX7_hhy0Se47C-6" value="" style="edgeStyle=orthogonalEdgeStyle;rounded=0;orthogonalLoop=1;jettySize=auto;html=1;fontColor=#000000;" edge="1" parent="1" source="gamUlA-FX7_hhy0Se47C-1" target="gamUlA-FX7_hhy0Se47C-5">
          <mxGeometry relative="1" as="geometry" />
        </mxCell>
        <mxCell id="gamUlA-FX7_hhy0Se47C-14" value="IF&lt;br&gt;head == NULL" style="rhombus;whiteSpace=wrap;html=1;fillColor=#fff2cc;strokeColor=#d6b656;flipH=0;flipV=0;" vertex="1" parent="1">
          <mxGeometry x="294.9583333333333" y="344.04255319148956" width="109.08333333333333" height="62.41134751773056" as="geometry" />
        </mxCell>
        <mxCell id="gamUlA-FX7_hhy0Se47C-15" value="" style="edgeStyle=orthogonalEdgeStyle;rounded=0;orthogonalLoop=1;jettySize=auto;html=1;fontColor=#000000;" edge="1" parent="1" source="gamUlA-FX7_hhy0Se47C-5" target="gamUlA-FX7_hhy0Se47C-14">
          <mxGeometry relative="1" as="geometry" />
        </mxCell>
        <mxCell id="gamUlA-FX7_hhy0Se47C-21" value="IF&lt;br&gt;head == head-&amp;gt;next" style="rhombus;whiteSpace=wrap;html=1;fillColor=#fff2cc;strokeColor=#d6b656;" vertex="1" parent="1">
          <mxGeometry x="290" y="468.8652482269505" width="119" height="70.21276595744688" as="geometry" />
        </mxCell>
        <mxCell id="gamUlA-FX7_hhy0Se47C-22" value="" style="edgeStyle=orthogonalEdgeStyle;rounded=0;orthogonalLoop=1;jettySize=auto;html=1;fontColor=#000000;" edge="1" parent="1" source="gamUlA-FX7_hhy0Se47C-14" target="gamUlA-FX7_hhy0Se47C-21">
          <mxGeometry relative="1" as="geometry" />
        </mxCell>
        <mxCell id="gamUlA-FX7_hhy0Se47C-34" value="No" style="edgeStyle=elbowEdgeStyle;rounded=0;orthogonalLoop=1;jettySize=auto;html=1;fontColor=#000000;" edge="1" parent="1" source="gamUlA-FX7_hhy0Se47C-30" target="gamUlA-FX7_hhy0Se47C-33">
          <mxGeometry relative="1" as="geometry" />
        </mxCell>
        <mxCell id="gamUlA-FX7_hhy0Se47C-30" value="SET&lt;br&gt;n_node = head." style="rounded=1;whiteSpace=wrap;html=1;fillColor=#dae8fc;strokeColor=#6c8ebf;" vertex="1" parent="1">
          <mxGeometry x="290" y="613.1914893617022" width="119" height="46.80851063829788" as="geometry" />
        </mxCell>
        <mxCell id="gamUlA-FX7_hhy0Se47C-31" value="No" style="edgeStyle=elbowEdgeStyle;rounded=0;orthogonalLoop=1;jettySize=auto;html=1;fontColor=#000000;" edge="1" parent="1" source="gamUlA-FX7_hhy0Se47C-21" target="gamUlA-FX7_hhy0Se47C-30">
          <mxGeometry relative="1" as="geometry" />
        </mxCell>
        <mxCell id="gamUlA-FX7_hhy0Se47C-36" value="YES" style="edgeStyle=elbowEdgeStyle;rounded=0;orthogonalLoop=1;jettySize=auto;html=1;fontColor=#000000;" edge="1" parent="1" source="gamUlA-FX7_hhy0Se47C-33" target="gamUlA-FX7_hhy0Se47C-35">
          <mxGeometry relative="1" as="geometry" />
        </mxCell>
        <mxCell id="gamUlA-FX7_hhy0Se47C-57" style="edgeStyle=elbowEdgeStyle;rounded=0;orthogonalLoop=1;jettySize=auto;html=1;fontColor=#000000;" edge="1" parent="1" source="gamUlA-FX7_hhy0Se47C-33" target="gamUlA-FX7_hhy0Se47C-59">
          <mxGeometry relative="1" as="geometry">
            <mxPoint x="200" y="780" as="targetPoint" />
          </mxGeometry>
        </mxCell>
        <mxCell id="gamUlA-FX7_hhy0Se47C-33" value="WHILE&lt;br&gt;n_node != NULL" style="rhombus;whiteSpace=wrap;html=1;fillColor=#fff2cc;strokeColor=#d6b656;rounded=1;" vertex="1" parent="1">
          <mxGeometry x="284.25" y="740" width="130.5" height="80" as="geometry" />
        </mxCell>
        <mxCell id="gamUlA-FX7_hhy0Se47C-38" value="" style="edgeStyle=elbowEdgeStyle;rounded=0;orthogonalLoop=1;jettySize=auto;html=1;fontColor=#000000;" edge="1" parent="1" source="gamUlA-FX7_hhy0Se47C-35" target="gamUlA-FX7_hhy0Se47C-37">
          <mxGeometry relative="1" as="geometry" />
        </mxCell>
        <mxCell id="gamUlA-FX7_hhy0Se47C-35" value="t_node = head" style="whiteSpace=wrap;html=1;fillColor=#dae8fc;strokeColor=#6c8ebf;rounded=1;" vertex="1" parent="1">
          <mxGeometry x="500" y="750" width="120" height="60" as="geometry" />
        </mxCell>
        <mxCell id="gamUlA-FX7_hhy0Se47C-40" value="YES" style="edgeStyle=elbowEdgeStyle;rounded=0;orthogonalLoop=1;jettySize=auto;html=1;fontColor=#000000;" edge="1" parent="1" source="gamUlA-FX7_hhy0Se47C-37" target="gamUlA-FX7_hhy0Se47C-39">
          <mxGeometry relative="1" as="geometry" />
        </mxCell>
        <mxCell id="gamUlA-FX7_hhy0Se47C-42" value="NO" style="edgeStyle=elbowEdgeStyle;rounded=0;orthogonalLoop=1;jettySize=auto;html=1;fontColor=#000000;" edge="1" parent="1" source="gamUlA-FX7_hhy0Se47C-37" target="gamUlA-FX7_hhy0Se47C-41">
          <mxGeometry relative="1" as="geometry" />
        </mxCell>
        <mxCell id="gamUlA-FX7_hhy0Se47C-37" value="IF&lt;br&gt;n_node == n_node-&amp;gt;next" style="rhombus;whiteSpace=wrap;html=1;fillColor=#fff2cc;strokeColor=#d6b656;rounded=1;" vertex="1" parent="1">
          <mxGeometry x="720" y="730" width="160" height="100" as="geometry" />
        </mxCell>
        <mxCell id="gamUlA-FX7_hhy0Se47C-39" value="Return n_node" style="strokeWidth=2;html=1;shape=mxgraph.flowchart.terminator;whiteSpace=wrap;flipV=1;flipH=1;fillColor=#f8cecc;strokeColor=#b85450;" vertex="1" parent="1">
          <mxGeometry x="960" y="750" width="100" height="60" as="geometry" />
        </mxCell>
        <mxCell id="gamUlA-FX7_hhy0Se47C-44" value="YES" style="edgeStyle=elbowEdgeStyle;rounded=0;orthogonalLoop=1;jettySize=auto;html=1;fontColor=#000000;" edge="1" parent="1" source="gamUlA-FX7_hhy0Se47C-41" target="gamUlA-FX7_hhy0Se47C-43">
          <mxGeometry relative="1" as="geometry" />
        </mxCell>
        <mxCell id="gamUlA-FX7_hhy0Se47C-51" value="NO" style="edgeStyle=elbowEdgeStyle;rounded=0;orthogonalLoop=1;jettySize=auto;html=1;fontColor=#000000;" edge="1" parent="1" source="gamUlA-FX7_hhy0Se47C-41" target="gamUlA-FX7_hhy0Se47C-50">
          <mxGeometry relative="1" as="geometry" />
        </mxCell>
        <mxCell id="gamUlA-FX7_hhy0Se47C-41" value="WHILE&lt;br&gt;n_node != t_node" style="rhombus;whiteSpace=wrap;html=1;fillColor=#fff2cc;strokeColor=#d6b656;rounded=1;" vertex="1" parent="1">
          <mxGeometry x="740" y="880" width="120" height="80" as="geometry" />
        </mxCell>
        <mxCell id="gamUlA-FX7_hhy0Se47C-46" value="YES" style="edgeStyle=elbowEdgeStyle;rounded=0;orthogonalLoop=1;jettySize=auto;html=1;fontColor=#000000;" edge="1" parent="1" source="gamUlA-FX7_hhy0Se47C-43" target="gamUlA-FX7_hhy0Se47C-45">
          <mxGeometry relative="1" as="geometry" />
        </mxCell>
        <mxCell id="gamUlA-FX7_hhy0Se47C-48" value="NO" style="edgeStyle=elbowEdgeStyle;rounded=0;orthogonalLoop=1;jettySize=auto;html=1;fontColor=#000000;" edge="1" parent="1" source="gamUlA-FX7_hhy0Se47C-43" target="gamUlA-FX7_hhy0Se47C-47">
          <mxGeometry relative="1" as="geometry" />
        </mxCell>
        <mxCell id="gamUlA-FX7_hhy0Se47C-43" value="IF&lt;br&gt;t_node == n_node-&amp;gt;next" style="rhombus;whiteSpace=wrap;html=1;fillColor=#fff2cc;strokeColor=#d6b656;rounded=1;" vertex="1" parent="1">
          <mxGeometry x="910" y="875" width="140" height="90" as="geometry" />
        </mxCell>
        <mxCell id="gamUlA-FX7_hhy0Se47C-45" value="Return t_node" style="strokeWidth=2;html=1;shape=mxgraph.flowchart.terminator;whiteSpace=wrap;flipV=1;flipH=1;fillColor=#f8cecc;strokeColor=#b85450;" vertex="1" parent="1">
          <mxGeometry x="1130" y="890" width="100" height="60" as="geometry" />
        </mxCell>
        <mxCell id="gamUlA-FX7_hhy0Se47C-49" style="edgeStyle=elbowEdgeStyle;rounded=0;orthogonalLoop=1;jettySize=auto;html=1;entryX=0.5;entryY=1;entryDx=0;entryDy=0;fontColor=#000000;" edge="1" parent="1" source="gamUlA-FX7_hhy0Se47C-47" target="gamUlA-FX7_hhy0Se47C-41">
          <mxGeometry relative="1" as="geometry">
            <Array as="points">
              <mxPoint x="800" y="1060" />
            </Array>
          </mxGeometry>
        </mxCell>
        <mxCell id="gamUlA-FX7_hhy0Se47C-47" value="SET&lt;br&gt;t_node = t_node-&amp;gt;next" style="whiteSpace=wrap;html=1;fillColor=#dae8fc;strokeColor=#6c8ebf;rounded=0;" vertex="1" parent="1">
          <mxGeometry x="915" y="1030" width="130" height="60" as="geometry" />
        </mxCell>
        <mxCell id="gamUlA-FX7_hhy0Se47C-52" style="edgeStyle=elbowEdgeStyle;rounded=0;orthogonalLoop=1;jettySize=auto;html=1;entryX=0.5;entryY=1;entryDx=0;entryDy=0;fontColor=#000000;" edge="1" parent="1" source="gamUlA-FX7_hhy0Se47C-50" target="gamUlA-FX7_hhy0Se47C-33">
          <mxGeometry x="1" y="51" relative="1" as="geometry">
            <Array as="points">
              <mxPoint x="350" y="920" />
              <mxPoint x="350" y="900" />
            </Array>
            <mxPoint x="-10" y="-1" as="offset" />
          </mxGeometry>
        </mxCell>
        <mxCell id="gamUlA-FX7_hhy0Se47C-50" value="SET&lt;br&gt;n_node = n_node-&amp;gt;next" style="whiteSpace=wrap;html=1;fillColor=#dae8fc;strokeColor=#6c8ebf;rounded=1;" vertex="1" parent="1">
          <mxGeometry x="540" y="890" width="120" height="60" as="geometry" />
        </mxCell>
        <mxCell id="gamUlA-FX7_hhy0Se47C-59" value="Return NULL" style="strokeWidth=2;html=1;shape=mxgraph.flowchart.terminator;whiteSpace=wrap;flipV=1;flipH=1;fillColor=#f8cecc;strokeColor=#b85450;rounded=0;fontColor=#000000;" vertex="1" parent="1">
          <mxGeometry x="130" y="750" width="100" height="60" as="geometry" />
        </mxCell>
      </root>
    </mxGraphModel>
  </diagram>
</mxfile>
